PathFileType	3	(X/Y/Z)	results
DataRate	CameraRate	NumFrames	NumMarkers	Units	OrigDataRate	OrigDataStartFrame	OrigNumFrames
30.0	30.0	4	85	mm	30.0	23	179
Frame#	Time	head			nose			neck			shoulder_r			elbow_r			wrist_r			shoulder_l			elbow_l			wrist_l			hip_r			knee_r			ankle_r			hip_l			knee_l			ankle_l			heel_r			heel_l			mtoe_r			ltoe_r			mtoe_l			ltoe_l			asis_l			asis_r			psi_r			psi_l			mhnd_r			lhnd_r			mhnd_l			lhnd_l			l_lat_knee			r_med_wrist			l_lat_ankle			r_med_ankle			r_lat_knee			xiphoid			l_med_ankle			r_med_knee			l_med_elbow			navel			r_lat_elbow			r_lat_wrist			l_med_wrist			l_lat_elbow			l_med_knee			r_med_elbow			r_lat_ankle			l_lat_wrist			chin			T10			r_eye			l_eye			l_ear			r_ear			spinal_cord_8			spinal_cord_12			spinal_cord_27			spinal_cord_33			up_arm_r_0			up_arm_r_5			up_arm_l_0			up_arm_l_5			front_torso_11			front_torso_7			front_torso_4			front_torso_1			front_torso_10			thigh_r_2			thigh_r_3			thigh_l_1			thigh_l_5			shank_l_0			shank_l_4			shank_r_1			shank_r_2			foot_r_1			foot_r_3			foot_r_5			foot_r_6			foot_r_7			foot_l_1			foot_l_7			foot_l_0			foot_l_4			foot_l_5			foot_l_6			
		X1	Y1	Z1	X2	Y2	Z2	X3	Y3	Z3	X4	Y4	Z4	X5	Y5	Z5	X6	Y6	Z6	X7	Y7	Z7	X8	Y8	Z8	X9	Y9	Z9	X10	Y10	Z10	X11	Y11	Z11	X12	Y12	Z12	X13	Y13	Z13	X14	Y14	Z14	X15	Y15	Z15	X16	Y16	Z16	X17	Y17	Z17	X18	Y18	Z18	X19	Y19	Z19	X20	Y20	Z20	X21	Y21	Z21	X22	Y22	Z22	X23	Y23	Z23	X24	Y24	Z24	X25	Y25	Z25	X26	Y26	Z26	X27	Y27	Z27	X28	Y28	Z28	X29	Y29	Z29	X30	Y30	Z30	X31	Y31	Z31	X32	Y32	Z32	X33	Y33	Z33	X34	Y34	Z34	X35	Y35	Z35	X36	Y36	Z36	X37	Y37	Z37	X38	Y38	Z38	X39	Y39	Z39	X40	Y40	Z40	X41	Y41	Z41	X42	Y42	Z42	X43	Y43	Z43	X44	Y44	Z44	X45	Y45	Z45	X46	Y46	Z46	X47	Y47	Z47	X48	Y48	Z48	X49	Y49	Z49	X50	Y50	Z50	X51	Y51	Z51	X52	Y52	Z52	X53	Y53	Z53	X54	Y54	Z54	X55	Y55	Z55	X56	Y56	Z56	X57	Y57	Z57	X58	Y58	Z58	X59	Y59	Z59	X60	Y60	Z60	X61	Y61	Z61	X62	Y62	Z62	X63	Y63	Z63	X64	Y64	Z64	X65	Y65	Z65	X66	Y66	Z66	X67	Y67	Z67	X68	Y68	Z68	X69	Y69	Z69	X70	Y70	Z70	X71	Y71	Z71	X72	Y72	Z72	X73	Y73	Z73	X74	Y74	Z74	X75	Y75	Z75	X76	Y76	Z76	X77	Y77	Z77	X78	Y78	Z78	X79	Y79	Z79	X80	Y80	Z80	X81	Y81	Z81	X82	Y82	Z82	X83	Y83	Z83	X84	Y84	Z84	X85	Y85	Z85	
23	0.7666666666666666	-2797.645664702374	1649.6155790376747	-444.0916800462405	-2882.0277579308336	1447.4807854325998	-481.93682685872574	-2744.0723039805684	1308.0200177616857	-444.0358364042781	-2770.4771096772556	1275.5575816153237	-632.0041600998985	-2805.537356760664	1030.851851001546	-675.7576090737371	-2920.355409940953	856.426685871019	-671.3898633295098	-2733.5235543811345	1255.0513328861782	-285.7460778383077	-2694.9004290928956	1023.5103642496462	-224.1503433655161	-2706.2294734870843	829.4737580072989	-148.21558603328478	-2722.4598004547624	834.1508828618045	-520.0685219936594	-2776.6111027309466	457.13103445230547	-515.7399155591252	-2474.6131498208847	234.86407127261143	-523.5747520201791	-2703.2662797141265	845.0363176662903	-359.13690034705587	-2814.726730186824	475.7125301159474	-388.1632615293638	-2722.4528617904134	108.9017963081304	-400.9166366153241	-2420.7233740663128	221.64064499703824	-519.3022633286515	-2687.3278192328657	47.13649649098729	-398.75398094284986	-2486.5009039402084	33.38554239933417	-517.362642912266	-2457.8910265885843	79.55322816635069	-574.7337719780826	-2896.610877896487	33.801832156195445	-408.49902763024517	-2844.345520908648	22.16332526432438	-335.160505107905	-2737.6533469046353	897.877795481025	-322.18210930536674	-2762.7943044892695	879.5825531245238	-558.0137740435441	-2639.153235598517	906.4783234521005	-493.84331019071556	-2634.4702320379774	911.384793505571	-412.9524882535552	-2936.3322013091347	786.766563278896	-687.9397041894943	-2982.0935063192537	796.0325662266955	-661.6892488050885	-2682.5902387810406	767.3843582342728	-110.78952801099103	-2730.08994703365	747.6150317071996	-125.23593823257984	-2819.927573051372	470.2815847791412	-340.26033412160797	-2902.9964897072664	854.1798047354591	-690.9903143111294	-2716.7356732642484	93.46721710082117	-349.86355944045636	-2474.6846705913804	218.18551631951647	-490.5427121820287	-2769.9892750933113	450.9419948910383	-556.4743629305871	-2822.0716930810804	1139.5587510412981	-444.7125650790373	-2731.741060007103	96.11216378643277	-431.25271845949067	-2777.049314092338	456.86483088356454	-475.1691084050361	-2671.7332526962473	1029.6418440971179	-247.37361131154952	-2819.923183341728	929.7810906640287	-446.28211225559073	-2832.266076563749	1045.3005089525466	-699.2120684514852	-2927.6553599230424	869.7939630732513	-646.7363015222428	-2687.40988805003	844.3427770085398	-131.85792769299883	-2714.4118564684413	1038.241487491029	-196.46674820279873	-2826.4569575065075	484.58616193918425	-433.81572158505577	-2778.7805575998123	1028.8282415013014	-652.6946324091765	-2462.608128181735	223.0866778080885	-569.4934059287431	-2730.320222255893	832.7173485273856	-161.99885436740664	-2845.4749717239692	1374.487071816284	-485.3425845868646	-2636.856755657125	1164.866710548666	-453.71432503208047	-2882.837204754358	1483.912035016153	-512.6965721593075	-2894.8114391385197	1474.6315059655126	-442.14396326527316	-2800.3099631036566	1483.2573425919534	-368.9490097202797	-2767.3273403133367	1503.6342930820367	-543.7195017016503	-2701.919723307336	1368.0421608764398	-444.90278630839157	-2644.1560721644014	1260.182781939301	-449.203692627489	-2641.4232572766373	1019.5004454811598	-467.7952653025871	-2648.5280623335047	1154.7164953774802	-453.2067489822266	-2826.1126400076296	1156.1962130210052	-631.3104871112919	-2769.702997979328	1132.024310702918	-689.8326006011595	-2737.3366900271667	1212.8092400772473	-249.30040115358673	-2670.6908187613494	1089.5402692565247	-257.5854853792245	-2786.748954243588	960.1225927335996	-493.6169437292439	-2844.8523423918555	1054.4700766635394	-446.2226566461466	-2827.755427931458	1181.05327528819	-381.73752981798856	-2787.5044417025665	989.667008169919	-380.33673465342406	-2845.391078240624	1222.361811799611	-518.3750193051536	-2750.889847243483	631.816698303221	-500.3673323191473	-2747.8468558690793	595.237777200024	-592.3733283089146	-2776.3573967304233	585.1632227057626	-426.2151796219383	-2760.227037322844	744.9029924630283	-270.4704782752063	-2755.773715243225	192.5388251904983	-332.5135639671124	-2782.1859875642117	334.82354816446986	-440.3768711759154	-2646.575232039929	364.6200227854337	-575.5329105172151	-2621.7298546000798	336.05415832646145	-481.1871574041236	-2472.729651933802	45.337603349096476	-537.07308408166	-2466.728762880399	59.03818356844734	-558.4207446060707	-2469.9860055877184	105.30363936263598	-507.1582825098825	-2467.9825837414364	117.41754059194074	-540.1849835477835	-2450.3536268890484	122.17947295947104	-566.2189338972992	-2872.0755226838605	22.0862258740375	-363.19088794514465	-2776.4828523627802	55.37609236917874	-345.10630230314166	-2864.8027397281826	22.041633394324535	-349.3855254687688	-2880.410544655761	22.14874931645457	-380.1495572162764	-2827.2411668897566	39.79660993444271	-373.1249309376646	-2800.3608146073398	53.522222307524515	-400.9856444475724	
24	0.8	-2851.848568192028	1659.0637495805263	-445.8402814327722	-2930.352336582911	1453.2443521208543	-475.61613672543234	-2790.9470517410773	1317.3498024970772	-436.3677663252127	-2812.2232712982236	1284.5211502757777	-628.4288846334995	-2835.307381214255	1038.043430735379	-670.1462366279375	-2933.5670164420694	853.750049194816	-672.8654966469134	-2790.0725413649566	1272.0434047044923	-286.4750500745873	-2758.2707145238833	1039.038088951264	-226.5236771985135	-2786.543933366592	840.2822944828505	-169.5903965839189	-2771.6684351543227	846.0614793886369	-516.2913244894442	-2870.759411959025	478.49647272134195	-504.0201664005933	-2598.5157885213903	220.75087652088203	-493.18650209990966	-2751.675735108118	853.0154205306868	-355.2391421926344	-2827.4477491382213	475.3164654283981	-383.28284279573796	-2725.50995088838	111.48358125313645	-404.7664989612016	-2546.4508765699943	199.22259063023552	-484.8556411851569	-2687.4471728827534	52.39271887773548	-406.2954263235764	-2645.4322994000527	26.618379229357142	-498.3053013652946	-2605.2072551806477	69.56052288119727	-551.0247935629171	-2895.030472357258	22.209500962596458	-397.90942685856277	-2835.527476134605	12.790095168957071	-329.96585097003725	-2784.6725105398677	905.8465976950474	-317.0235919665919	-2811.041116149583	893.2431575732905	-553.0939367149997	-2686.5790804373005	915.8141255668537	-488.8436613907907	-2681.5063662658263	918.8622703371464	-407.884996451225	-2943.187616916983	783.6748810851392	-692.3232106792818	-2989.420213880796	787.567360846294	-665.556854295996	-2771.9991901301573	775.27876867315	-132.4742427254708	-2815.01236669789	757.4058116270811	-158.6691157293605	-2829.8233137878115	468.44070329219244	-335.17587365696886	-2916.2141282530556	853.9420571898667	-692.5986836583701	-2713.3320065412104	96.71539329799906	-354.6573434607105	-2603.1219957996445	203.96321705170877	-460.53298298680323	-2865.1760266614306	470.7132967763843	-544.6384614480758	-2868.8214284518776	1148.8597659476957	-439.5693412942267	-2737.8835513748168	98.1246418260348	-433.7243292700081	-2871.0251823480467	479.077898296849	-463.4517053268687	-2730.832020063548	1046.7037033089875	-243.90152759025247	-2866.5182494740793	939.1013103549367	-442.70494964624646	-2863.286239837746	1050.9199658804328	-693.0520908225353	-2941.890563348786	865.334944036184	-647.6409003620727	-2771.90261935041	853.6192855529329	-148.36319465960787	-2783.7812968970434	1052.1040442369472	-203.2304543478214	-2843.5982528201284	482.95264326301907	-427.9094650112647	-2807.9649100010797	1037.5735418093398	-647.6942732009333	-2584.6103320437637	207.92487426965982	-538.2806509947452	-2806.8948553663577	844.9140755569297	-188.17130397606553	-2891.5107585348205	1381.3890381762058	-477.59938288725124	-2683.502558737839	1174.328049869417	-445.4328371484245	-2933.003609764688	1488.6520585170776	-507.44879542071453	-2943.1734641766006	1481.2014146625827	-436.3978059997702	-2847.47851949173	1495.1346751486096	-365.6109635167521	-2818.882678968446	1511.0877483184559	-541.6097582456327	-2748.8232216871947	1377.3978174778417	-436.10668760307374	-2690.931692869619	1269.6032380735237	-440.3117268946329	-2687.754657343712	1029.0713200765942	-460.69320880050884	-2695.174164686657	1164.168438265098	-445.18828116962123	-2861.453783228574	1162.4035761302152	-625.8628546366825	-2805.1892073396834	1140.8727333578292	-685.5443982855472	-2800.3282944865914	1228.1959367326704	-253.31723293128405	-2729.5328695792764	1106.9936853505178	-251.4261970521553	-2832.614885903408	969.8200086098267	-489.27367317237133	-2891.522472276989	1063.773765016226	-442.09043662484777	-2875.5308079260662	1189.8692279550978	-376.3778568727447	-2835.188565046737	998.4979286707402	-375.7976753151901	-2891.0187114395235	1232.211425100831	-512.9592541035805	-2824.13684172909	649.0624544913707	-492.3335036991878	-2826.024119267189	610.539793806568	-583.5739736722509	-2803.1639189600273	587.8877753953357	-421.813394949596	-2792.90216509942	746.901601377733	-264.8334787550429	-2753.239256501723	194.66937855365018	-333.3828806689773	-2796.7385663587906	335.03670202520533	-438.1772894241639	-2748.8847336675094	371.10404041426057	-555.5589427400243	-2734.9172811032613	338.9915975862463	-460.1224517767856	-2628.457869885477	36.803290077731674	-516.4474337517676	-2618.6812674157977	50.231761876806694	-536.5355737088395	-2616.783100399804	93.59380351495723	-482.72969710588615	-2610.4563748105784	106.80958837307793	-514.7740235528082	-2590.5959666882704	109.54833675322243	-539.4577456567166	-2865.6086865431034	11.245482235734048	-355.40983367749914	-2771.699880793529	51.73470467665426	-344.6867213942049	-2857.1245513505955	11.399853476708453	-342.31483413305574	-2875.436752502147	11.112735281348016	-371.54874509219337	-2823.4124066856025	32.85575042229238	-368.63604433320074	-2800.360715539819	49.539619090831394	-398.25754315912843	
25	0.8333333333333334	-2902.6848868392613	1664.2500477716146	-445.52547416798313	-2979.130977094712	1457.3250608359376	-472.89539647270635	-2837.8350682730447	1322.4827592060121	-428.40162670445426	-2851.307562797691	1288.9658870801154	-623.3837109495053	-2858.2740303642327	1041.4603952350637	-664.8201641527174	-2942.1940332023305	850.4697959221659	-675.1364070522953	-2843.5217693800896	1289.662984677289	-286.7154169461137	-2826.5253961744897	1056.262454504434	-222.43232210537496	-2878.3944423536427	856.3150791782589	-192.84704994714198	-2820.9623674269233	854.6035225191497	-512.6202738734049	-2950.0067972318907	497.2530113638971	-493.35493571555776	-2726.8044007191565	196.62776911357832	-471.6315598666713	-2804.5401382907353	858.4572301838103	-351.06121314778875	-2837.9290459562576	475.376274912563	-379.0742353612541	-2728.2802446001306	114.24353258538139	-407.1368899392613	-2679.515201001099	164.27668471835395	-460.1974142749044	-2688.7979600150356	56.398347818379946	-412.6223898225085	-2814.375437332588	22.407811700764448	-498.3598138728967	-2762.588897521757	60.78096743136138	-544.0444059706724	-2893.615802560153	19.508246270931526	-385.0370742643303	-2827.230808473905	8.152040356364909	-324.1295179441743	-2835.697678229891	912.4285887186599	-312.8951429887171	-2856.9610701766637	904.2212846207408	-549.6732375344284	-2733.0953307505943	919.5141919371765	-482.206576202385	-2729.832387919968	921.261465780986	-401.1163222713372	-2945.575963727138	780.2421413241366	-696.0726638822085	-2993.2188093655354	780.2055203594377	-671.5940982966364	-2876.5555875940768	787.5913333678428	-159.85792786563275	-2913.2387754324654	775.2645981031611	-196.7109148739521	-2836.937688766549	467.37076499512136	-330.83579828716637	-2923.9639688593616	852.3090315462849	-693.973610442658	-2708.1792503600172	101.28060440797083	-359.1239573835464	-2736.176612008634	180.583089994863	-439.63117090128503	-2947.2887496102653	488.52464813934876	-534.1002862295139	-2915.2680529877543	1153.9228216844476	-435.83408172871447	-2744.4347631968735	99.7024122424645	-433.55110080933787	-2948.9667475192796	497.7028028349318	-452.80813193570737	-2795.9617000931244	1063.8187553471844	-233.49559833018444	-2912.492390670243	944.2124686266052	-441.0885926340886	-2885.932948599952	1052.6353841809412	-688.9739155733268	-2952.5810881098514	860.9420087560338	-650.1922027547561	-2868.3607511947757	866.7210932374	-167.6701275460859	-2856.3632788911577	1069.4050818810088	-205.08137596563697	-2859.1286418960967	480.7647007595975	-422.0938302430754	-2831.9475648224998	1042.6330991275026	-641.209485063917	-2712.574225242077	182.01730024691864	-516.0768815950266	-2893.575987346424	863.9903435439062	-215.01627524312056	-2939.6671932901863	1385.7834666780643	-473.3399927706025	-2729.902178560913	1179.7202775457004	-435.5487561294931	-2981.7392380562833	1492.2076680401228	-505.3061010428137	-2992.6058683224946	1485.779666780571	-434.2583827348636	-2897.794604019714	1501.6364105763932	-362.6914693444605	-2867.452053557796	1515.0859260245347	-538.6068994536192	-2795.8478934689324	1382.5857916344398	-426.1763248116942	-2737.6599211559214	1274.9254994660753	-429.6697731877631	-2733.4091129798326	1034.6259322518147	-452.4546488991502	-2741.5575261903864	1169.5417267244748	-435.78086777875785	-2893.459521597545	1164.2060083787264	-622.327886240615	-2833.5138144245298	1145.824084772185	-679.4223992765242	-2860.871526568228	1245.7660064931308	-256.7277029760091	-2792.76345676873	1124.1250473314826	-240.2862362827078	-2877.184341527864	975.4680677227578	-486.2344859759274	-2937.7259092105346	1068.8351557438652	-439.9638112097549	-2924.050873217881	1194.2561175347714	-372.4618262448582	-2883.405957551857	1002.9480463304385	-372.6035426426638	-2935.275812727165	1238.0088728728442	-509.0155227061307	-2888.999142751106	662.9241611084875	-484.9517667095863	-2898.0220163236804	624.318937569527	-575.7295450016765	-2830.4929057745144	589.5862680811972	-417.4742541825166	-2826.6467097294917	747.8056646272013	-259.4071043160557	-2747.6704559067966	198.58310370289982	-334.3682931958433	-2811.1895472268825	334.5505980595876	-434.64395863463795	-2845.301066715575	371.0538576808013	-539.7586079708038	-2842.8281052916122	336.1672660904045	-444.3058305785572	-2794.557590436464	30.450614899629525	-514.5945573254136	-2780.8900745487067	43.53537512009599	-532.5229492520309	-2772.0990533012873	78.49241564293264	-473.5342612400594	-2761.178808428957	93.608751747678	-503.43021277586297	-2739.8960535939427	94.5763934899118	-527.0380654200302	-2859.721050417621	7.106086787436704	-346.4443440546757	-2766.2298948705516	49.77203145659834	-342.9447629106634	-2849.9421713630995	6.7926355419855105	-334.28874179614786	-2871.1497510665854	7.568865701043779	-361.485740301502	-2819.651127021947	30.68678921400831	-362.5940835371209	-2800.1829249944917	49.677508904397236	-393.3756820431005	
26	0.8666666666666667	-2956.745907362546	1666.5744848863987	-450.93114854817196	-3027.733874982055	1456.8118290277953	-470.20299955003253	-2885.4323237165777	1323.020560487747	-420.8944869251695	-2889.462061628276	1288.103235971309	-618.1117767010668	-2879.136486922358	1040.6407836837743	-659.1019832473983	-2949.176799168477	844.8585022539635	-678.8517606743479	-2896.741324119224	1298.382291892132	-284.04793029330267	-2896.5396421912674	1066.1702672167255	-213.51754400508193	-2979.970676072782	874.9264819737195	-216.63465347166522	-2870.3920303442783	859.8478152568987	-508.9395004101569	-3016.5097349618864	510.0497573458209	-487.4874884797461	-2859.9854865823627	170.05160099237625	-463.6512872126276	-2860.814998857736	860.028617650046	-346.7848872981338	-2850.8919364964017	476.2173794210678	-376.05007917014336	-2730.3685610429116	119.14587438912811	-410.70965310106544	-2820.855863192275	126.94877862166362	-451.11134780952614	-2690.0743294469253	61.31031323698314	-419.2334184383961	-2984.419012226647	27.575458079497018	-507.1690739507706	-2922.9774010834694	56.66890960216855	-547.4173812452656	-2892.65282858157	26.59251147242519	-376.4689030026567	-2821.805665137901	11.990894965099253	-321.57688630753756	-2889.8877843428563	915.3968931842562	-308.9764761036847	-2901.301149627714	912.3870933308762	-546.5560079073579	-2779.74824944789	918.1132494659555	-473.6146040077956	-2779.9175588375424	918.3579084483218	-392.44046698918646	-2945.9713409947267	774.8315219505598	-700.4766269617002	-2995.6729145612594	771.4590150920808	-680.7935876322042	-2991.0185939015046	802.9227633623724	-194.0952475669412	-3026.190224621694	801.786265377409	-234.31230972369517	-2844.734093252374	467.86113544777623	-327.986953503571	-2929.352750272716	848.0915837054401	-695.7961560576694	-2703.969203305777	108.14213952115365	-365.3299120375079	-2873.1835238177173	156.11503476469684	-432.01461701285984	-3016.127380814833	500.9314269803069	-528.2713881411551	-2962.0101161779016	1154.3880839077144	-433.64166665344743	-2749.028103902856	103.34818423362235	-434.6340681162143	-3015.6628840856215	509.9985394984996	-446.9507864236459	-2865.251438123818	1071.484366037302	-223.8346134225761	-2958.490177134712	944.738596531978	-440.6021866069882	-2904.933514105606	1050.3433123613436	-685.8166640309485	-2962.6000219937355	854.3304721144598	-654.9798031661677	-2970.4560335580168	880.0425395176501	-189.68776048782075	-2925.9612914106465	1081.6281554635298	-197.40843231391852	-2877.957609555938	478.50035854745585	-416.2075248505561	-2855.2762698885813	1043.196967013999	-633.1004802282062	-2848.0032371166362	153.04459725504393	-507.90665795752807	-2992.0753519388004	887.8957092171667	-238.22491767942194	-2986.4943321216406	1386.3378963196392	-467.2853796298726	-2776.946381373175	1180.531197735458	-423.94376991478885	-3030.8967406403317	1490.2257158243044	-504.07867712722185	-3042.289745904642	1486.5126952829864	-432.91974206065197	-2948.6040222461293	1507.7579215819312	-361.26738134019223	-2916.897834025312	1514.5751669189674	-537.3243073026064	-2843.746724826581	1383.1803410785753	-416.06116838783464	-2785.2070672122595	1275.665357650825	-417.61668700299566	-2779.274356013609	1035.5872025805415	-442.28213511521113	-2788.5522352766725	1170.3331808394478	-424.84294039985576	-2924.7532509727853	1161.251926125549	-620.6031367976648	-2858.7477560116595	1146.207577493362	-671.6727809312134	-2917.7116982419516	1256.4829442096789	-253.52073208779507	-2858.013478222394	1131.2660239881782	-232.01725884869145	-2921.0619660164284	976.4624422750816	-483.6655018356808	-2984.038018943612	1069.2985090035143	-439.62970550542076	-2974.0149404448366	1194.1374271764905	-370.4290938970991	-2932.968363906658	1002.9151695439917	-370.2444282983873	-2978.563746125277	1239.086226656217	-506.97992207514665	-2947.7940900896806	671.928594937727	-480.11564817297955	-2960.6771397720354	634.0565257033788	-570.736363058917	-2861.965910295324	589.9430155268901	-413.33017526180276	-2859.8686501263137	747.5838816554846	-254.65329175221663	-2744.184775112414	204.36752281747965	-337.69735899417935	-2825.279200363607	335.2729116003355	-431.84892267607734	-2938.7304361605425	365.3265185682556	-532.7465431291791	-2945.6697691225377	330.2342194566054	-437.58983698613116	-2962.573398020689	32.17750727325701	-522.0885550759848	-2945.3910350662964	43.331999611849675	-538.2063366111521	-2930.8656218004876	68.5378490411298	-475.49573484344893	-2915.346566444413	83.60468587499429	-503.3107062116022	-2893.489702457407	81.81837174199948	-526.3391509886417	-2855.9982311012964	12.263876353718846	-341.209899799404	-2761.7629296438467	53.32814113393865	-343.790633320236	-2845.281250449525	11.354613963535938	-329.90490262429915	-2868.588658114368	13.453511217514276	-355.25051518548673	-2816.9312155319735	35.800732877392214	-359.7098201426613	-2799.6560022386975	55.604706772607216	-391.27775885828765	
